# xmcd
#
# Track frame offsets:
#	150
#	16128
#	29732
#	51195
#	67346
#	85111
#	99266
#	117594
#	139059
#
# Disc length: 2114 seconds
#
# Revision: 0
# Processed by: cddbd v1.5PL3 Copyright (c) Steve Scherf et al.
# Submitted via: dBpowerAMP V4.0
#
DISCID=7b084009
DTITLE=Eva Gold - Traction
DYEAR=1900
DGENRE=Blues
TTITLE0=Make ou Mine
TTITLE1=Dust
TTITLE2=Drive Away
TTITLE3=Grab It
TTITLE4=Misery
TTITLE5=What Is
TTITLE6=Little While
TTITLE7=Story
TTITLE8=Pain Fade Away
EXTD=
EXTT0=
EXTT1=
EXTT2=
EXTT3=
EXTT4=
EXTT5=
EXTT6=
EXTT7=
EXTT8=
PLAYORDER=
